HIERARCHY
ROOT Hips
{
	OFFSET 0.000000 0.000000 0.000000
	CHANNELS 6 Xposition Yposition Zposition Zrotation Yrotation Xrotation 
	JOINT LHipJoint
	{
		OFFSET 0.000000 0.000000 0.000000
		CHANNELS 3 Zrotation Yrotation Xrotation
		JOINT LeftUpLeg
		{
			OFFSET 1.363060 -1.794630 0.839290
			CHANNELS 3 Zrotation Yrotation Xrotation
			JOINT LeftLeg
			{
				OFFSET 2.448110 -6.726130 0.000000
				CHANNELS 3 Zrotation Yrotation Xrotation
				JOINT LeftFoot
				{
					OFFSET 2.562200 -7.039590 0.000000
					CHANNELS 3 Zrotation Yrotation Xrotation
					JOINT LeftToeBase
					{
						OFFSET 0.157640 -0.433110 2.322550
						CHANNELS 3 Zrotation Yrotation Xrotation
						End Site
						{
							OFFSET 0.000000 0.000000 0.000000
						}
					}
				}
			}
		}
	}
	JOINT RHipJoint
	{
		OFFSET 0.000000 0.000000 0.000000
		CHANNELS 3 Zrotation Yrotation Xrotation
		JOINT RightUpLeg
		{
			OFFSET -1.305520 -1.794630 0.839290
			CHANNELS 3 Zrotation Yrotation Xrotation
			JOINT RightLeg
			{
				OFFSET -2.542530 -6.985550 0.000000
				CHANNELS 3 Zrotation Yrotation Xrotation
				JOINT RightFoot
				{
					OFFSET -2.568260 -7.056230 0.000000
					CHANNELS 3 Zrotation Yrotation Xrotation
					JOINT RightToeBase
					{
						OFFSET -0.164730 -0.452590 2.363150
						CHANNELS 3 Zrotation Yrotation Xrotation
						End Site
						{
							OFFSET 0.000000 0.000000 0.000000
						}
					}
				}
			}
		}
	}
	JOINT LowerBack
	{
		OFFSET 0.000000 0.000000 0.000000
		CHANNELS 3 Zrotation Yrotation Xrotation
		JOINT Spine
		{
			OFFSET 0.028270 2.035590 -0.193380
			CHANNELS 3 Zrotation Yrotation Xrotation
			JOINT Spine1
			{
				OFFSET 0.056720 2.048850 -0.042750
				CHANNELS 3 Zrotation Yrotation Xrotation
				JOINT Neck
				{
					OFFSET 0.000000 0.000000 0.000000
					CHANNELS 3 Zrotation Yrotation Xrotation
					JOINT Neck1
					{
						OFFSET -0.054170 1.746240 0.172020
						CHANNELS 3 Zrotation Yrotation Xrotation
						JOINT Head
						{
							OFFSET 0.104070 1.761360 -0.123970
							CHANNELS 3 Zrotation Yrotation Xrotation
							End Site
							{
								OFFSET 0.000000 0.000000 0.000000
							}
						}
					}
				}
				JOINT LeftShoulder
				{
					OFFSET 0.000000 0.000000 0.000000
					CHANNELS 3 Zrotation Yrotation Xrotation
					JOINT LeftArm
					{
						OFFSET 3.362410 1.200890 -0.311210
						CHANNELS 3 Zrotation Yrotation Xrotation
						JOINT LeftForeArm
						{
							OFFSET 4.983000 -0.000000 -0.000000
							CHANNELS 3 Zrotation Yrotation Xrotation
							JOINT LeftHand
							{
								OFFSET 3.483560 -0.000000 -0.000000
								CHANNELS 3 Zrotation Yrotation Xrotation
								JOINT LeftFingerBase
								{
									OFFSET 0.000000 0.000000 0.000000
									CHANNELS 3 Zrotation Yrotation Xrotation
									JOINT LeftHandIndex1
									{
										OFFSET 0.715260 -0.000000 -0.000000
										CHANNELS 3 Zrotation Yrotation Xrotation
										End Site
										{
											OFFSET 0.000000 0.000000 0.000000
										}
									}
								}
								JOINT LThumb
								{
									OFFSET 0.000000 0.000000 0.000000
									CHANNELS 3 Zrotation Yrotation Xrotation
									End Site
									{
										OFFSET 0.000000 0.000000 0.000000
									}
								}
							}
						}
					}
				}
				JOINT RightShoulder
				{
					OFFSET 0.000000 0.000000 0.000000
					CHANNELS 3 Zrotation Yrotation Xrotation
					JOINT RightArm
					{
						OFFSET -3.136600 1.374050 -0.404650
						CHANNELS 3 Zrotation Yrotation Xrotation
						JOINT RightForeArm
						{
							OFFSET -5.241900 -0.000000 -0.000000
							CHANNELS 3 Zrotation Yrotation Xrotation
							JOINT RightHand
							{
								OFFSET -3.444170 -0.000000 -0.000000
								CHANNELS 3 Zrotation Yrotation Xrotation
								JOINT RightFingerBase
								{
									OFFSET 0.000000 0.000000 0.000000
									CHANNELS 3 Zrotation Yrotation Xrotation
									JOINT RightHandIndex1
									{
										OFFSET -0.622530 -0.000000 -0.000000
										CHANNELS 3 Zrotation Yrotation Xrotation
										End Site
										{
											OFFSET 0.000000 0.000000 0.000000
										}
									}
								}
								JOINT RThumb
								{
									OFFSET 0.000000 0.000000 0.000000
									CHANNELS 3 Zrotation Yrotation Xrotation
									End Site
									{
										OFFSET 0.000000 0.000000 0.000000
									}
								}
							}
						}
					}
				}
			}
		}
	}
}
MOTION
Frames: 11
Frame Time: 0.008333
-18.727177 14.292027 12.086802 161.873656 -30.441193 -159.474498 -13.443464 8.265793 1.489038 8.451991 -18.136586 -60.298825 3.537117 12.678835 77.194960 3.408175 9.879157 -4.491956 -3.242151 9.502912 -12.753703 -7.685752 -8.327660 -5.607995 39.715712 1.232793 -21.499482 -8.564820 -14.376452 57.311561 -20.360821 -8.108656 -10.150264 -12.418585 0.197030 -36.366649 14.982953 -2.186455 11.900725 -3.705212 1.142117 -5.177057 -10.806048 2.053414 3.616709 -6.800068 -0.351697 -9.438497 -8.915772 0.193203 12.103138 11.882403 -23.058967 13.216401 9.288247 8.557797 1.598373 -83.156408 -0.159310 8.691849 156.398598 -79.433215 -171.967869 -5.204590 28.338969 -5.352477 -0.000001 -0.000002 -0.000000 -0.000000 -0.000000 0.000000 0.000000 0.000000 -0.000000 -14.906058 9.941982 5.039077 81.786847 47.496258 20.658439 -77.619228 89.114071 -60.286079 5.756514 0.026822 0.093606 0.000000 0.000002 -0.000000 0.000000 -0.000000 0.000000 0.000000 0.000000 0.000000 
-18.774324 14.329189 11.964940 161.835182 -30.008149 -159.588837 -13.540920 8.493336 1.675663 7.715388 -18.147116 -61.412322 2.531207 13.206136 75.257339 3.111839 9.925793 -4.598430 -3.617535 9.965749 -14.976949 -7.744529 -8.375703 -5.727522 39.611053 1.020534 -20.253426 -8.340801 -14.147564 56.499083 -19.649378 -7.433651 -10.417510 -11.994150 -0.100382 -35.819563 15.139843 -2.261287 11.956326 -3.749850 1.155493 -5.179778 -10.837308 2.059366 3.477689 -6.941387 -0.378719 -9.308873 -9.117702 0.183102 12.077561 11.377776 -23.362403 13.582578 9.167404 8.507419 1.602448 -83.470608 0.194451 8.718964 156.484871 -79.193929 -172.602685 -5.331103 28.931495 -5.503159 -0.000001 -0.000002 -0.000000 0.000000 0.000000 0.000000 0.000000 0.000000 0.000000 -14.980422 9.875665 4.932217 82.175275 47.718830 23.770788 -86.600341 86.869378 -68.479791 4.961962 -1.081967 -0.124030 0.000000 0.000002 -0.000000 0.000000 0.000000 0.000000 -0.000000 0.000000 0.000000 
-18.809760 14.367102 11.830766 161.657958 -29.724445 -159.670582 -13.416562 8.734727 1.783932 6.498082 -18.272621 -62.109763 1.779409 13.579484 72.936537 2.798526 9.629485 -4.158198 -3.482214 9.386304 -15.802088 -7.643864 -8.484843 -5.666343 39.406535 0.590681 -19.259703 -7.946187 -13.461138 55.780267 -18.992720 -7.062294 -10.679781 -12.847980 0.403187 -37.069072 15.087848 -2.313804 11.970767 -3.784103 1.097632 -5.170873 -10.723210 1.977576 3.160454 -7.123904 -0.298942 -8.958008 -9.354041 0.263755 12.104265 11.763562 -23.587841 13.136248 8.955456 8.325828 1.641910 -83.656082 0.721326 8.870057 155.706985 -78.874259 -171.564115 -6.202854 28.804087 -5.696431 -0.000001 -0.000002 -0.000000 0.000000 -0.000000 0.000000 -0.000000 -0.000000 0.000000 -14.920286 10.012750 4.922745 82.490679 47.717448 24.514869 -88.452094 86.861467 -69.067339 6.721614 0.017997 0.107032 0.000000 0.000002 -0.000000 0.000000 -0.000000 0.000000 0.000000 -0.000000 -0.000000 
-18.838889 14.426817 11.696592 161.461342 -29.348488 -159.673223 -13.709478 8.539468 1.727878 6.022674 -17.953477 -62.406580 0.999892 14.379045 69.995480 1.968880 9.164747 -3.282760 -3.272990 8.674365 -16.460140 -7.134471 -8.334680 -5.642016 38.684273 -0.171257 -18.558407 -7.684539 -12.668587 55.023129 -17.795437 -6.362116 -10.901559 -12.758590 0.603717 -36.511054 15.130325 -2.293906 12.080798 -3.980579 1.161675 -5.240385 -10.602616 1.982505 2.958650 -7.361383 -0.253512 -8.706063 -9.735660 0.375512 12.205612 11.236396 -23.633632 13.592895 8.390204 7.902293 1.503336 -83.595616 1.185085 8.998946 154.880649 -78.547978 -170.366924 -6.123751 28.477629 -5.608198 -0.000001 -0.000002 -0.000000 0.000000 0.000000 0.000000 0.000000 -0.000000 -0.000000 -14.658194 10.124051 5.096423 82.527580 47.704504 27.653372 -94.884251 84.142738 -74.940016 6.817489 -0.956104 -0.088022 0.000000 0.000002 -0.000000 0.000000 -0.000000 0.000000 -0.000000 0.000000 0.000000 
-18.870571 14.477252 11.550300 161.375167 -29.245777 -159.759447 -13.829206 9.059496 1.961606 4.479782 -18.199276 -63.059358 0.707242 14.462016 67.553858 1.403417 8.035299 -3.400097 -2.986009 7.800786 -17.034482 -7.175740 -8.627773 -5.730593 38.828235 -0.791240 -17.582732 -7.077444 -11.433532 54.556657 -16.636494 -6.233527 -10.668831 -12.128071 0.117482 -35.780787 15.257981 -2.370654 12.046635 -4.039363 1.133426 -5.259792 -10.935287 2.020516 2.960317 -7.144287 -0.239722 -8.748976 -9.848870 0.372944 12.300957 11.032555 -23.725058 14.044399 8.531716 7.874477 1.488362 -83.815054 1.340000 9.329912 155.103094 -78.452215 -171.204958 -5.556056 29.182895 -5.611234 -0.000001 -0.000002 -0.000000 0.000000 0.000000 0.000000 -0.000000 0.000000 0.000000 -14.412147 10.105350 4.995439 82.562270 47.456214 29.183730 -96.542254 82.908819 -75.234199 5.563418 -0.793105 -0.065598 0.000000 0.000002 -0.000000 0.000000 -0.000000 0.000000 -0.000000 0.000000 0.000000 
-18.892492 14.520661 11.395541 161.192615 -29.314827 -159.818109 -13.603337 9.656954 2.156731 2.139324 -18.591591 -63.339979 0.919309 14.482255 64.867286 0.253901 6.307301 -3.148533 -2.537096 6.644485 -16.974031 -7.341135 -8.964905 -5.716627 39.438151 -2.443412 -17.109359 -8.583030 -10.485226 53.865863 -13.553494 -3.606259 -10.448037 -12.318497 1.103243 -34.600427 15.182932 -2.390033 11.955302 -4.024880 1.104434 -5.249957 -10.709053 1.976527 2.770183 -7.369209 -0.262522 -8.544065 -9.901987 0.399236 12.426329 10.634869 -23.643489 14.046971 8.342660 7.616270 1.469371 -84.075647 1.742122 9.952440 154.025073 -78.247347 -170.328397 -5.215288 29.428747 -5.573967 -0.000001 -0.000002 -0.000000 -0.000000 -0.000000 0.000000 0.000000 -0.000000 -0.000000 -14.618434 10.076105 4.948195 82.598459 46.962217 29.861665 -97.620418 82.454326 -74.958440 7.335641 0.349931 0.185256 0.000000 0.000002 -0.000000 0.000000 -0.000000 0.000000 0.000000 -0.000000 -0.000000 
-18.917568 14.566727 11.230345 161.013884 -29.530363 -159.779815 -13.363019 10.281663 2.379320 -0.255726 -19.082555 -63.467481 0.940527 14.426013 61.885063 -1.477663 4.735226 -2.368312 -2.103725 5.334290 -18.282961 -7.513867 -9.298975 -5.385920 39.255090 -1.160392 -15.917451 -8.840458 -11.829623 52.768260 -11.367110 -2.437364 -10.074785 -11.270423 0.714053 -32.616447 15.198796 -2.353038 11.603883 -4.062406 1.080486 -5.191616 -10.538868 1.950722 2.675019 -7.506838 -0.238025 -8.330837 -9.995557 0.477828 12.633784 10.459134 -23.525273 14.275550 8.147669 7.216107 1.442199 -84.248757 2.131437 11.136123 150.746807 -77.781763 -164.690277 -5.907400 27.359685 -5.323492 -0.000001 -0.000002 -0.000000 0.000000 0.000000 0.000000 0.000000 0.000000 0.000000 -14.663845 10.106185 5.102853 82.415363 46.360982 31.454717 -101.182660 80.720314 -78.979771 7.528779 -0.265735 0.060688 0.000000 0.000002 -0.000000 0.000000 0.000000 0.000000 0.000000 0.000000 -0.000000 
-18.936036 14.609129 11.062688 160.854227 -29.621481 -159.807509 -12.863631 10.817453 2.564742 -2.706924 -19.489686 -63.157289 0.739684 14.703974 58.469548 -3.137099 3.302990 -0.956751 -2.064287 5.244878 -18.206886 -7.599331 -9.549884 -5.137303 39.578835 -1.881696 -15.366677 -8.545950 -10.492543 52.276462 -9.268279 -2.186468 -9.787262 -12.770318 2.765970 -33.051924 15.047116 -2.369667 11.350951 -4.061710 1.111947 -5.148933 -10.547507 2.029775 2.688154 -7.413521 -0.232990 -8.255262 -10.077574 0.505767 12.826762 10.207053 -23.522206 14.968431 8.174113 6.916981 1.448941 -84.399038 2.338569 11.556196 150.772265 -77.697615 -165.438646 -4.772223 28.071119 -5.193562 -0.000001 -0.000002 -0.000000 0.000000 0.000000 0.000000 0.000000 0.000000 -0.000000 -14.473187 9.991487 5.093401 82.370506 45.868852 32.438091 -102.857895 79.830333 -80.653427 7.640619 -0.417322 0.030394 0.000000 0.000002 -0.000000 0.000000 -0.000000 -0.000000 -0.000000 -0.000000 -0.000000 
-18.954505 14.649189 10.881321 160.799119 -29.772463 -159.819794 -12.561667 11.414332 2.877933 -5.426564 -19.836034 -62.955187 0.720597 14.383729 55.850453 -4.736445 1.387814 -0.267057 -1.205642 3.013722 -19.016909 -7.695484 -9.833043 -5.080279 39.958373 -2.938680 -15.046426 -8.933609 -9.523831 52.034933 -6.896193 -0.826525 -9.013426 -11.372488 2.232553 -30.451865 15.007397 -2.424495 11.117871 -4.075807 1.094829 -5.144073 -10.446893 1.996653 2.734928 -7.517031 -0.208527 -8.311736 -10.055926 0.547972 12.885454 10.028594 -23.243396 14.831621 7.981654 6.881156 1.451793 -84.527716 2.392621 12.140855 150.141727 -77.667906 -164.909924 -4.751155 28.277603 -5.228856 -0.000001 -0.000002 -0.000000 0.000000 0.000000 0.000000 0.000000 -0.000000 -0.000000 -14.532949 9.936203 4.776097 82.431012 45.109307 33.062994 -101.464311 79.682618 -76.994244 7.665634 0.685897 0.261799 0.000000 0.000002 -0.000000 -0.000000 -0.000000 -0.000000 0.000000 0.000000 0.000000 
-18.970120 14.683814 10.692447 160.672416 -30.051727 -159.863998 -12.112291 12.075090 3.196271 -8.278487 -20.387687 -62.348913 1.274015 14.702017 52.911186 -7.391683 -1.128039 1.134397 -1.201401 2.945815 -19.804863 -7.845238 -10.276958 -4.936903 40.267889 -3.550000 -14.565394 -8.827046 -8.617322 51.906000 -4.167523 -0.176079 -8.310920 -11.642510 3.249013 -29.581965 14.870205 -2.367647 10.881688 -4.075317 1.068893 -5.105299 -10.325200 1.958734 2.639970 -7.548017 -0.194985 -8.163392 -10.004839 0.585898 12.986411 9.870974 -23.013643 15.308520 7.909573 6.555624 1.468203 -84.683510 2.595213 12.866324 148.821880 -77.573165 -162.339784 -6.224920 27.445670 -5.416919 -0.000001 -0.000002 -0.000000 0.000000 0.000000 0.000000 0.000000 -0.000000 0.000000 -14.521002 9.900697 4.939919 82.277877 44.289037 33.584995 -103.385691 79.224372 -80.260352 8.603428 0.072472 0.148572 0.000000 0.000002 -0.000000 -0.000000 -0.000000 -0.000000 -0.000000 0.000000 -0.000000 
-18.984084 14.721486 10.503664 160.674831 -30.298539 -159.945994 -11.608671 12.580553 3.399692 -11.300568 -20.514397 -61.452941 1.178578 14.630930 49.807932 -10.279679 -2.892524 3.020042 -0.995102 2.393895 -20.678172 -7.917420 -10.447531 -4.680169 40.400942 -3.569047 -14.072616 -8.699728 -8.436364 51.615361 -1.527636 0.429057 -7.501686 -11.121796 3.658793 -27.695082 14.824949 -2.393641 10.662107 -4.086888 1.076149 -5.090694 -10.568424 2.006162 2.663678 -7.248688 -0.139989 -8.173262 -9.958149 0.608776 13.088176 9.646976 -22.633218 15.594673 8.110137 6.355647 1.504718 -84.778489 2.607885 13.266785 148.877900 -77.672822 -162.948565 -6.228594 28.125017 -5.560152 -0.000001 -0.000002 -0.000000 0.000000 0.000000 0.000000 0.000000 0.000000 -0.000000 -14.139438 9.774317 4.772347 82.249500 43.455128 34.289041 -102.891430 78.862557 -79.388804 8.813553 -0.314789 0.066833 0.000000 0.000002 -0.000000 -0.000000 -0.000000 -0.000000 -0.000000 0.000000 0.000000 
